# xmcd
#
# Track frame offsets:
#	150
#	26091
#	78279
#	108546
#	138787
#	162146
#	195673
#	237636
#	252470
#	276614
#	305901
#
# Disc length: 4487 seconds
#
# Revision: 1
# Processed by: cddbd v1.5.2PL0 Copyright (c) Steve Scherf et al.
# Submitted via: audiograbber 1.83.01
#
DISCID=a011850b
DTITLE=Grateful Dead - 95-07-08 Soldier Field, Chicago IL
DYEAR=1900
DGENRE=
TTITLE0=Jack Straw
TTITLE1=Sugaree
TTITLE2=Wang Dang Doodle
TTITLE3=Althea
TTITLE4=Queen Jane Approximately
TTITLE5=Tennessee Jed
TTITLE6=Eternity
TTITLE7=Don't Ease Me In
TTITLE8=China Cat Sunflower
TTITLE9=I Know You Rider
TTITLE10=It's All Too Much
EXTD=
EXTT0=
EXTT1=
EXTT2=
EXTT3=
EXTT4=
EXTT5=
EXTT6=
EXTT7=
EXTT8=
EXTT9=
EXTT10=
PLAYORDER=
